<?xml version="1.0" encoding="utf-8"?>
<!-- Generator: Adobe Illustrator 23.0.5, SVG Export Plug-In . SVG Version: 6.00 Build 0)  -->
<svg version="1.1" xmlns="http://www.w3.org/2000/svg" xmlns:xlink="http://www.w3.org/1999/xlink" x="0px" y="0px"
	 viewBox="0 0 133 133.7" style="enable-background:new 0 0 133 133.7;" xml:space="preserve">
<style type="text/css">
	.st0{fill:#FFFFFF;}
</style>
<g id="Layer_2">
	<g>
		<g id="Layer_1-2">
			
				<image style="overflow:visible;enable-background:new    ;" width="591" height="709" xlink:href="../2/2/img/my_logo1.png"  transform="matrix(0.19 0 0 0.19 10.75 -6.728313e-06)">
			</image>
		</g>
	</g>
</g>
<g id="Layer_1">
	<g>
		<path class="st0" d="M72.6,10.6c-0.5-0.2-0.9-0.4-1.2-0.6l1-1.7c0.3,0.2,0.6,0.4,1,0.6c0.4,0.2,0.8,0.3,1.2,0.3c0.3,0,0.5,0,0.7,0
			c0.1,0,0.2-0.1,0.2-0.2s-0.1-0.2-0.2-0.2c-0.1-0.1-0.4-0.1-0.7-0.2c-0.5-0.1-1-0.3-1.3-0.4s-0.7-0.4-0.9-0.7S71.9,6.6,72,6.1
			c0.1-0.4,0.2-0.8,0.5-1.1c0.3-0.3,0.7-0.5,1.2-0.6c0.5-0.1,1.1-0.1,1.9,0c0.5,0.1,1,0.2,1.4,0.3c0.5,0.2,0.8,0.3,1.1,0.6l-1,1.7
			c-0.5-0.4-1.1-0.6-1.8-0.7c-0.6-0.1-0.9,0-0.9,0.2c0,0.1,0.1,0.2,0.2,0.3s0.4,0.1,0.7,0.2c0.5,0.1,1,0.3,1.3,0.4
			c0.4,0.2,0.7,0.4,0.9,0.7c0.2,0.3,0.3,0.8,0.3,1.3c-0.1,0.4-0.2,0.8-0.5,1.1c-0.3,0.3-0.7,0.5-1.3,0.6s-1.2,0.1-1.9,0
			C73.7,10.9,73.1,10.8,72.6,10.6z"/>
		<path class="st0" d="M79.7,11.6c-0.5-0.4-0.8-0.9-1-1.5c-0.2-0.6-0.2-1.2,0-1.8s0.5-1.2,0.9-1.6s1-0.7,1.6-0.8
			c0.6-0.1,1.3-0.1,2,0.1c0.8,0.2,1.4,0.5,1.8,1c0.5,0.5,0.7,1,0.8,1.7l-2.3,0.5c-0.1-0.6-0.4-1-0.9-1.1c-0.3-0.1-0.6,0-0.9,0.1
			s-0.4,0.4-0.6,0.8c-0.1,0.4-0.1,0.7,0.1,1c0.1,0.3,0.4,0.4,0.7,0.5c0.5,0.1,0.9,0,1.3-0.5l1.8,1.5c-0.4,0.5-0.9,0.9-1.5,1.1
			c-0.6,0.2-1.3,0.2-2.1,0C80.8,12.3,80.2,12,79.7,11.6z"/>
		<path class="st0" d="M91.9,8.9L91,11.1c-0.2-0.1-0.4-0.2-0.5-0.3c-0.9-0.3-1.5-0.1-1.8,0.8l-1.1,2.7l-2.5-1l2.4-6.1l2.4,0.9
			l-0.3,0.7C90.2,8.6,91,8.6,91.9,8.9z"/>
		<path class="st0" d="M91.4,15.7c-0.4-0.5-0.6-1.1-0.6-1.7c0-0.6,0.1-1.2,0.4-1.8c0.3-0.6,0.7-1,1.3-1.3c0.5-0.3,1.1-0.4,1.8-0.4
			c0.6,0,1.3,0.2,1.9,0.5c0.6,0.3,1.2,0.8,1.5,1.3c0.4,0.5,0.6,1.1,0.6,1.7c0,0.6-0.1,1.2-0.4,1.8c-0.3,0.6-0.7,1-1.3,1.3
			c-0.5,0.3-1.1,0.4-1.8,0.4c-0.6,0-1.3-0.2-1.9-0.5C92.3,16.7,91.8,16.3,91.4,15.7z M94.8,15.2c0.3-0.1,0.5-0.3,0.7-0.7
			c0.2-0.4,0.3-0.7,0.2-1c-0.1-0.3-0.2-0.5-0.5-0.7s-0.6-0.2-0.8-0.1c-0.3,0.1-0.5,0.3-0.7,0.7c-0.2,0.4-0.3,0.7-0.2,1
			s0.2,0.5,0.5,0.7S94.5,15.3,94.8,15.2z"/>
		<path class="st0" d="M101.9,11.8l2.3,1.5l-5,7.4l-2.3-1.5L101.9,11.8z"/>
		<path class="st0" d="M105.5,14.3l2.1,1.7l-5.4,7l-2.1-1.7L105.5,14.3z"/>
		<path class="st0" d="M117,25.1l-6.5,6l-1.8-1.9l0.4-0.4c-0.6,0-1.2-0.3-1.7-0.9c-0.4-0.4-0.6-0.9-0.8-1.4
			c-0.1-0.5-0.1-1.1,0.1-1.7s0.5-1.1,1-1.5c0.5-0.5,1-0.8,1.6-0.9s1.1-0.1,1.7,0c0.5,0.2,1,0.5,1.4,0.9c0.5,0.5,0.7,1.1,0.7,1.6
			l2-1.9L117,25.1z M110.2,27.4c0.3,0,0.6-0.2,0.9-0.4s0.5-0.6,0.5-0.9c0-0.3-0.1-0.6-0.3-0.8s-0.5-0.3-0.8-0.3
			c-0.3,0-0.6,0.1-0.9,0.4c-0.3,0.3-0.5,0.6-0.5,0.9c0,0.3,0.1,0.6,0.3,0.8C109.6,27.3,109.9,27.4,110.2,27.4z"/>
		<path class="st0" d="M112.2,33c-0.1-0.6,0-1.2,0.2-1.8c0.2-0.6,0.6-1,1.2-1.4c0.5-0.4,1.1-0.6,1.7-0.6s1.2,0.1,1.8,0.4
			s1.1,0.8,1.5,1.4c0.4,0.6,0.7,1.2,0.8,1.9c0.1,0.6,0,1.2-0.2,1.8c-0.2,0.6-0.6,1-1.2,1.4c-0.5,0.4-1.1,0.6-1.7,0.6
			c-0.6,0-1.2-0.1-1.8-0.4c-0.6-0.3-1.1-0.8-1.5-1.4C112.5,34.2,112.3,33.6,112.2,33z M115.4,34.1c0.3,0,0.6-0.1,1-0.3
			c0.3-0.2,0.5-0.5,0.6-0.8c0.1-0.3,0-0.6-0.2-0.8c-0.2-0.3-0.4-0.4-0.7-0.4c-0.3,0-0.6,0.1-1,0.3c-0.3,0.2-0.5,0.5-0.6,0.8
			c-0.1,0.3,0,0.6,0.2,0.8C114.9,33.9,115.1,34,115.4,34.1z"/>
		<path class="st0" d="M126.3,45.7l-6.9,0.7l-1.1-2.4l2.3-2.2l-3.2,0.3l-1.1-2.4l5-4.8l1.1,2.3l-2.7,2.5l3.6-0.4l1,2.1l-2.7,2.5
			l3.7-0.4L126.3,45.7z"/>
		<path class="st0" d="M127.6,53.5c-0.3,0.6-1,1-1.9,1.3l-3.6,1l-0.7-2.6l3.2-0.8c0.7-0.2,1-0.6,0.9-1.1c-0.1-0.3-0.2-0.5-0.5-0.6
			c-0.3-0.1-0.6-0.1-1,0l-3,0.8l-0.7-2.6l6.3-1.7l0.7,2.5l-0.6,0.2c0.3,0.2,0.6,0.4,0.8,0.7c0.2,0.3,0.4,0.6,0.5,1
			C128,52.2,128,52.9,127.6,53.5z"/>
		<path class="st0" d="M133.1,66.2l0.1,2.4l-11.4-3.7l-0.1-2.4L133.1,66.2z"/>
		<path class="st0" d="M122.3,76.5c0.2-0.5,0.5-0.9,0.7-1.2l1.6,1.1c-0.2,0.3-0.5,0.6-0.6,1s-0.3,0.8-0.4,1.2
			c-0.1,0.3-0.1,0.5-0.1,0.7c0,0.1,0.1,0.2,0.2,0.2c0.1,0,0.2,0,0.3-0.2c0.1-0.1,0.2-0.4,0.3-0.7c0.2-0.5,0.3-0.9,0.5-1.3
			c0.2-0.3,0.4-0.6,0.8-0.9c0.3-0.2,0.8-0.3,1.3-0.2c0.4,0.1,0.8,0.3,1,0.6c0.3,0.3,0.5,0.7,0.6,1.3s0.1,1.2-0.1,1.9
			c-0.1,0.5-0.2,1-0.4,1.4c-0.2,0.4-0.4,0.8-0.6,1.1l-1.6-1.1c0.4-0.5,0.7-1.1,0.9-1.8c0.1-0.6,0.1-0.9-0.1-0.9
			c-0.1,0-0.2,0-0.3,0.2c-0.1,0.1-0.2,0.4-0.3,0.7c-0.2,0.5-0.3,0.9-0.5,1.3c-0.2,0.3-0.4,0.6-0.8,0.8c-0.3,0.2-0.8,0.3-1.3,0.2
			c-0.4-0.1-0.7-0.3-1-0.6c-0.3-0.3-0.5-0.7-0.6-1.3c-0.1-0.5-0.1-1.2,0.1-1.9C121.9,77.5,122.1,77,122.3,76.5z"/>
		<path class="st0" d="M120.9,83.5c0.5-0.5,1-0.8,1.6-0.9c0.6-0.1,1.2-0.1,1.8,0.1c0.6,0.2,1.1,0.6,1.5,1c0.4,0.5,0.6,1,0.7,1.7
			c0.1,0.6,0,1.3-0.2,2c-0.3,0.8-0.6,1.4-1.1,1.8c-0.5,0.4-1.1,0.6-1.7,0.7l-0.3-2.3c0.6-0.1,1-0.3,1.2-0.8c0.1-0.3,0.1-0.6-0.1-0.9
			s-0.4-0.5-0.8-0.6c-0.4-0.1-0.7-0.1-1,0c-0.3,0.1-0.5,0.3-0.6,0.6c-0.2,0.5,0,0.9,0.5,1.4l-1.6,1.7c-0.5-0.4-0.8-0.9-1-1.6
			c-0.1-0.6-0.1-1.4,0.2-2.1C120.1,84.6,120.4,84,120.9,83.5z"/>
		<path class="st0" d="M122.8,95.8l-2.2-1c0.1-0.2,0.2-0.4,0.3-0.5c0.4-0.8,0.2-1.5-0.7-1.9l-2.6-1.2l1.1-2.5l6,2.8l-1.1,2.3
			l-0.6-0.3C123.2,94.2,123.2,95,122.8,95.8z"/>
		<path class="st0" d="M116,95c0.6-0.3,1.1-0.5,1.7-0.5s1.2,0.2,1.8,0.5s1,0.8,1.2,1.3s0.4,1.1,0.3,1.8c-0.1,0.6-0.3,1.3-0.7,1.9
			c-0.4,0.6-0.9,1.1-1.4,1.5c-0.5,0.3-1.1,0.5-1.7,0.5c-0.6,0-1.2-0.2-1.8-0.5s-1-0.8-1.2-1.3c-0.3-0.5-0.4-1.1-0.3-1.8
			c0.1-0.6,0.3-1.3,0.7-1.9C115,95.8,115.4,95.3,116,95z M116.3,98.3c0.1,0.3,0.3,0.5,0.7,0.8s0.7,0.3,1,0.2
			c0.3-0.1,0.5-0.2,0.7-0.5s0.2-0.5,0.1-0.8c-0.1-0.3-0.3-0.5-0.7-0.8c-0.3-0.2-0.7-0.3-1-0.2c-0.3,0-0.5,0.2-0.7,0.5
			S116.2,98,116.3,98.3z"/>
		<path class="st0" d="M119.3,105.6l-1.7,2.2l-7.1-5.4l1.7-2.2L119.3,105.6z"/>
		<path class="st0" d="M116.6,109l-1.8,2l-6.7-5.9l1.8-2L116.6,109z"/>
		<path class="st0" d="M105,119.9l-5.6-6.9l2-1.6l0.3,0.4c0-0.6,0.4-1.1,1-1.6c0.4-0.4,0.9-0.6,1.5-0.7c0.5-0.1,1.1,0,1.6,0.2
			s1,0.6,1.5,1.1c0.4,0.5,0.7,1.1,0.8,1.7c0.1,0.6,0.1,1.1-0.1,1.6c-0.2,0.5-0.5,1-1,1.3c-0.6,0.5-1.1,0.7-1.6,0.6l1.8,2.2
			L105,119.9z M103.2,112.9c0,0.3,0.1,0.6,0.4,0.9c0.3,0.3,0.5,0.5,0.8,0.5c0.3,0,0.6,0,0.8-0.2s0.4-0.4,0.4-0.7s-0.1-0.6-0.4-0.9
			c-0.3-0.3-0.5-0.5-0.8-0.5c-0.3-0.1-0.6,0-0.8,0.2C103.3,112.4,103.2,112.6,103.2,112.9z"/>
		<path class="st0" d="M97.5,114.6c0.6,0,1.2,0.1,1.8,0.3s1,0.7,1.3,1.3c0.3,0.6,0.5,1.1,0.5,1.8s-0.2,1.2-0.5,1.7
			c-0.3,0.5-0.8,1-1.5,1.4c-0.6,0.4-1.3,0.6-1.9,0.6c-0.6,0.1-1.2-0.1-1.8-0.3c-0.5-0.3-1-0.7-1.3-1.3c-0.3-0.6-0.5-1.1-0.5-1.8
			c0-0.6,0.2-1.2,0.5-1.7c0.3-0.5,0.8-1,1.5-1.4C96.2,114.8,96.8,114.6,97.5,114.6z M96.2,117.7c-0.1,0.3,0,0.6,0.2,1
			c0.2,0.3,0.5,0.6,0.7,0.7c0.3,0.1,0.6,0.1,0.8-0.1c0.3-0.2,0.4-0.4,0.5-0.7s0-0.6-0.2-1s-0.5-0.6-0.7-0.7s-0.6-0.1-0.8,0.1
			C96.4,117.2,96.2,117.4,96.2,117.7z"/>
		<path class="st0" d="M83.9,127.8l-0.3-6.9l2.5-1l2,2.5l-0.1-3.2l2.5-1l4.5,5.3l-2.4,0.9l-2.3-2.8l0.2,3.7l-2.1,0.8l-2.3-2.9
			l0.2,3.7L83.9,127.8z"/>
		<path class="st0" d="M76.1,128.7c-0.6-0.4-1-1.1-1.2-2l-0.7-3.7l2.7-0.5l0.6,3.2c0.1,0.7,0.5,1.1,1,0.9c0.3-0.1,0.5-0.2,0.7-0.5
			s0.2-0.6,0.1-1l-0.6-3l2.7-0.5l1.3,6.4l-2.5,0.5l-0.1-0.6c-0.2,0.3-0.5,0.5-0.8,0.7c-0.3,0.2-0.6,0.3-1,0.4
			C77.3,129.2,76.6,129.1,76.1,128.7z"/>
		<path class="st0" d="M63,133.4l-2.4-0.1l4.4-11.1l2.4,0.1L63,133.4z"/>
		<path class="st0" d="M53.4,122c0.5,0.3,0.9,0.5,1.2,0.8l-1.2,1.5c-0.2-0.3-0.6-0.5-0.9-0.7s-0.8-0.4-1.1-0.5
			c-0.3-0.1-0.5-0.1-0.7-0.1c-0.1,0-0.2,0.1-0.2,0.2s0,0.2,0.2,0.3c0.1,0.1,0.4,0.2,0.7,0.3c0.5,0.2,0.9,0.4,1.3,0.6
			c0.3,0.2,0.6,0.5,0.8,0.8c0.2,0.4,0.2,0.8,0.1,1.3c-0.1,0.4-0.3,0.7-0.7,1c-0.3,0.3-0.8,0.4-1.3,0.5c-0.5,0.1-1.2,0-1.8-0.2
			c-0.5-0.1-0.9-0.3-1.4-0.5c-0.4-0.2-0.8-0.5-1.1-0.7l1.2-1.5c0.5,0.5,1,0.8,1.7,1c0.6,0.2,0.9,0.1,0.9-0.1c0-0.1,0-0.2-0.2-0.3
			c-0.1-0.1-0.4-0.2-0.7-0.3c-0.5-0.2-0.9-0.4-1.2-0.6c-0.3-0.2-0.6-0.5-0.8-0.8s-0.2-0.8-0.1-1.3c0.1-0.4,0.3-0.7,0.7-1
			c0.3-0.3,0.8-0.4,1.3-0.5c0.5-0.1,1.2,0,1.9,0.2C52.4,121.5,52.9,121.7,53.4,122z"/>
		<path class="st0" d="M46.5,120.1c0.4,0.5,0.7,1,0.8,1.6c0.1,0.6,0,1.2-0.2,1.8s-0.6,1.1-1.1,1.4c-0.5,0.4-1.1,0.5-1.7,0.6
			c-0.7,0-1.3-0.1-2-0.4c-0.7-0.3-1.3-0.7-1.7-1.3c-0.4-0.5-0.6-1.1-0.5-1.8l2.3-0.2c0,0.6,0.3,1,0.7,1.2c0.3,0.1,0.6,0.1,0.9,0
			c0.3-0.1,0.5-0.4,0.7-0.8c0.2-0.4,0.2-0.7,0.1-1c-0.1-0.3-0.3-0.5-0.6-0.6c-0.5-0.2-0.9-0.1-1.4,0.4l-1.6-1.7
			c0.4-0.5,1-0.8,1.6-0.9c0.7-0.1,1.4,0,2.1,0.3C45.5,119.2,46,119.6,46.5,120.1z"/>
		<path class="st0" d="M34.1,121.2l1.1-2.1c0.2,0.1,0.3,0.2,0.5,0.3c0.8,0.4,1.4,0.3,1.9-0.6l1.4-2.6l2.4,1.3l-3.1,5.8l-2.3-1.2
			l0.3-0.6C35.7,121.8,34.9,121.7,34.1,121.2z"/>
		<path class="st0" d="M35.4,114.5c0.3,0.6,0.4,1.2,0.4,1.8c0,0.6-0.2,1.2-0.6,1.7s-0.8,0.9-1.4,1.2c-0.6,0.2-1.2,0.3-1.8,0.2
			c-0.6-0.1-1.3-0.4-1.9-0.8c-0.6-0.4-1.1-0.9-1.4-1.5s-0.4-1.2-0.4-1.8c0-0.6,0.2-1.2,0.6-1.7s0.8-0.9,1.4-1.2
			c0.6-0.2,1.2-0.3,1.8-0.2c0.6,0.1,1.3,0.4,1.9,0.8C34.6,113.4,35.1,113.9,35.4,114.5z M32,114.6c-0.3,0.1-0.6,0.3-0.8,0.6
			c-0.2,0.3-0.3,0.6-0.3,0.9c0,0.3,0.2,0.5,0.4,0.7c0.3,0.2,0.5,0.2,0.8,0.2c0.3-0.1,0.6-0.3,0.8-0.6c0.2-0.3,0.3-0.7,0.3-1
			c0-0.3-0.2-0.5-0.4-0.7S32.3,114.5,32,114.6z"/>
		<path class="st0" d="M24.6,117.1l-2-1.8l5.8-6.7l2,1.8L24.6,117.1z"/>
		<path class="st0" d="M21.3,114.2l-1.9-1.9l6.3-6.3l1.9,1.9L21.3,114.2z"/>
		<path class="st0" d="M11.2,102l7.2-5.2l1.5,2.1l-0.4,0.3c0.6,0.1,1.1,0.4,1.6,1.1c0.3,0.5,0.5,1,0.6,1.5c0.1,0.6,0,1.1-0.3,1.6
			c-0.3,0.5-0.7,1-1.2,1.4c-0.6,0.4-1.1,0.6-1.7,0.7s-1.1,0-1.6-0.2c-0.5-0.2-0.9-0.6-1.3-1.1c-0.4-0.6-0.6-1.2-0.5-1.7l-2.3,1.6
			L11.2,102z M18.2,100.6c-0.3,0-0.6,0.1-1,0.3c-0.3,0.2-0.5,0.5-0.6,0.8s0,0.6,0.2,0.8c0.2,0.3,0.4,0.4,0.7,0.4
			c0.3,0,0.6-0.1,0.9-0.3c0.3-0.2,0.5-0.5,0.6-0.8c0.1-0.3,0-0.6-0.2-0.8C18.8,100.7,18.5,100.6,18.2,100.6z"/>
		<path class="st0" d="M16.9,94.8c0,0.6-0.1,1.2-0.4,1.8s-0.8,0.9-1.3,1.2c-0.6,0.3-1.2,0.4-1.8,0.4c-0.6-0.1-1.2-0.3-1.7-0.7
			s-1-0.9-1.3-1.5c-0.3-0.7-0.5-1.3-0.5-2c0-0.6,0.1-1.2,0.4-1.8c0.3-0.5,0.8-0.9,1.3-1.2s1.2-0.4,1.8-0.4c0.6,0,1.2,0.3,1.7,0.6
			c0.5,0.4,1,0.9,1.3,1.5C16.8,93.5,16.9,94.1,16.9,94.8z M13.9,93.3c-0.3-0.1-0.6,0-1,0.2c-0.4,0.2-0.6,0.4-0.7,0.7
			c-0.1,0.3-0.1,0.6,0.1,0.8c0.1,0.3,0.4,0.5,0.7,0.5c0.3,0.1,0.6,0,1-0.2c0.4-0.2,0.6-0.4,0.7-0.7c0.1-0.3,0.1-0.6-0.1-0.8
			S14.2,93.4,13.9,93.3z"/>
		<path class="st0" d="M4.6,80.4l6.9,0.2l0.8,2.5L9.7,85L13,85l0.8,2.5l-5.6,4.2l-0.8-2.4l3-2.1l-3.7-0.1L6,84.9l3-2.2l-3.7-0.1
			L4.6,80.4z"/>
		<path class="st0" d="M4.2,72.5c0.4-0.6,1.1-0.9,2.1-1L10,71l0.4,2.7l-3.2,0.4c-0.7,0.1-1.1,0.4-1,0.9c0,0.3,0.2,0.5,0.4,0.7
			c0.2,0.2,0.6,0.2,1,0.1l3.1-0.4l0.4,2.7l-6.5,0.9l-0.3-2.6l0.6-0.1c-0.3-0.2-0.5-0.5-0.7-0.8c-0.2-0.3-0.3-0.7-0.3-1.1
			C3.6,73.8,3.8,73.1,4.2,72.5z"/>
		<path class="st0" d="M0,63.3l0.1-2.4l11.1,4.4l-0.1,2.4L0,63.3z"/>
		<path class="st0" d="M10.7,57.1c-0.2,0.5-0.5,0.9-0.7,1.2l-1.6-1.1c0.2-0.3,0.5-0.6,0.6-1c0.2-0.4,0.3-0.8,0.4-1.2
			c0.1-0.3,0.1-0.5,0.1-0.7c0-0.1-0.1-0.2-0.2-0.2c-0.1,0-0.2,0-0.3,0.2s-0.2,0.4-0.3,0.7c-0.2,0.5-0.3,0.9-0.5,1.3
			c-0.2,0.3-0.4,0.6-0.8,0.9s-0.8,0.3-1.3,0.2c-0.4-0.1-0.8-0.3-1-0.6c-0.3-0.3-0.5-0.7-0.6-1.3c-0.1-0.5-0.1-1.2,0.1-1.9
			c0.1-0.5,0.2-1,0.4-1.4s0.4-0.8,0.6-1.1l1.6,1.1c-0.4,0.5-0.7,1.1-0.9,1.8c-0.1,0.6-0.1,0.9,0.1,0.9c0.1,0,0.2,0,0.3-0.2
			C7,54.6,7,54.4,7.2,54.1c0.2-0.5,0.3-0.9,0.5-1.3c0.2-0.3,0.4-0.6,0.8-0.8c0.3-0.2,0.8-0.3,1.3-0.2c0.4,0.1,0.7,0.3,1,0.6
			c0.3,0.3,0.5,0.8,0.6,1.3c0.1,0.5,0.1,1.2-0.1,1.9C11.1,56.1,11,56.6,10.7,57.1z"/>
		<path class="st0" d="M12.2,50.1c-0.5,0.5-1,0.8-1.6,0.9s-1.2,0.1-1.8-0.1s-1.1-0.6-1.5-1s-0.6-1-0.7-1.7c-0.1-0.6,0-1.3,0.2-2
			c0.3-0.8,0.6-1.4,1.1-1.8C8.4,44,9,43.7,9.6,43.7L9.9,46c-0.6,0.1-1,0.3-1.2,0.8c-0.1,0.3-0.1,0.6,0.1,0.9C9,48,9.2,48.2,9.6,48.3
			c0.4,0.1,0.7,0.1,1,0s0.5-0.3,0.6-0.6c0.2-0.5,0-0.9-0.5-1.4l1.7-1.7c0.5,0.4,0.8,0.9,1,1.6c0.1,0.6,0.1,1.4-0.2,2.1
			C13,49,12.6,49.6,12.2,50.1z"/>
		<path class="st0" d="M10.3,37.8l2.2,1c-0.1,0.2-0.2,0.4-0.3,0.5c-0.4,0.8-0.2,1.5,0.7,1.9l2.6,1.2l-1.1,2.5l-5.9-2.8l1.1-2.3
			l0.6,0.3C9.9,39.4,9.9,38.7,10.3,37.8z"/>
		<path class="st0" d="M17.1,38.7c-0.6,0.3-1.1,0.5-1.7,0.5c-0.6,0-1.2-0.2-1.8-0.5s-1-0.8-1.2-1.3S12,36.2,12,35.6s0.3-1.3,0.7-1.9
			c0.4-0.6,0.9-1.1,1.4-1.5c0.5-0.3,1.1-0.5,1.7-0.5s1.2,0.2,1.8,0.5s1,0.8,1.2,1.3c0.3,0.5,0.4,1.1,0.3,1.8
			c-0.1,0.6-0.3,1.3-0.7,1.9C18.1,37.9,17.6,38.4,17.1,38.7z M16.8,35.3c-0.1-0.3-0.3-0.5-0.7-0.8s-0.7-0.3-1-0.2
			c-0.3,0.1-0.5,0.2-0.7,0.5c-0.2,0.3-0.2,0.5-0.1,0.8c0.1,0.3,0.3,0.5,0.6,0.8c0.3,0.2,0.7,0.3,1,0.2c0.3-0.1,0.5-0.2,0.7-0.5
			C16.9,35.9,16.9,35.6,16.8,35.3z"/>
		<path class="st0" d="M13.8,28l1.7-2.1l7.1,5.4l-1.7,2.1L13.8,28z"/>
		<path class="st0" d="M16.5,24.6l1.8-2l6.7,5.9l-1.8,2L16.5,24.6z"/>
		<path class="st0" d="M28.1,13.8l5.6,6.9l-2,1.6l-0.3-0.4c0,0.6-0.4,1.1-1,1.6c-0.4,0.4-0.9,0.6-1.5,0.7c-0.5,0.1-1.1,0-1.6-0.2
			c-0.5-0.2-1-0.6-1.5-1.1s-0.7-1.1-0.8-1.7s-0.1-1.1,0.1-1.6c0.2-0.5,0.5-1,1-1.3c0.6-0.5,1.1-0.7,1.7-0.6L26,15.5L28.1,13.8z
			 M30,20.7c0-0.3-0.1-0.6-0.4-0.9c-0.3-0.3-0.5-0.5-0.8-0.5c-0.3,0-0.6,0-0.8,0.2c-0.2,0.2-0.4,0.4-0.4,0.7s0.1,0.6,0.4,0.9
			c0.3,0.3,0.5,0.5,0.8,0.6c0.3,0.1,0.6,0,0.8-0.2S29.9,21,30,20.7z"/>
		<path class="st0" d="M35.6,19.1c-0.6,0-1.2-0.1-1.8-0.3c-0.5-0.3-1-0.7-1.3-1.3c-0.3-0.6-0.5-1.1-0.5-1.8c0-0.6,0.2-1.2,0.5-1.7
			c0.3-0.5,0.8-1,1.5-1.4c0.6-0.4,1.3-0.6,1.9-0.6c0.6-0.1,1.2,0.1,1.8,0.3c0.5,0.3,1,0.7,1.3,1.3c0.3,0.6,0.5,1.1,0.5,1.8
			c0,0.6-0.2,1.2-0.5,1.7c-0.3,0.5-0.8,1-1.5,1.4C36.9,18.8,36.3,19,35.6,19.1z M36.9,16c0.1-0.3,0-0.6-0.2-1
			c-0.2-0.4-0.5-0.6-0.7-0.7c-0.3-0.1-0.6-0.1-0.8,0.1c-0.3,0.2-0.4,0.4-0.5,0.7c-0.1,0.3,0,0.6,0.2,1c0.2,0.3,0.5,0.6,0.7,0.7
			c0.3,0.1,0.6,0.1,0.8-0.1C36.7,16.5,36.9,16.2,36.9,16z"/>
		<path class="st0" d="M49.2,5.9l0.2,6.9l-2.5,1l-2-2.5l0.1,3.2l-2.5,1l-4.5-5.3l2.4-0.9l2.3,2.8l-0.2-3.7l2.1-0.8l2.3,2.9L47,6.7
			L49.2,5.9z"/>
		<path class="st0" d="M57.1,5c0.6,0.4,1,1.1,1.2,2l0.7,3.7l-2.7,0.5L55.7,8c-0.1-0.7-0.5-1.1-1-0.9c-0.3,0.1-0.5,0.2-0.7,0.5
			s-0.2,0.6-0.1,1l0.6,3l-2.7,0.5l-1.3-6.4l2.5-0.5l0.1,0.6c0.2-0.3,0.5-0.5,0.8-0.7c0.3-0.2,0.6-0.3,1-0.4
			C55.8,4.5,56.5,4.6,57.1,5z"/>
		<path class="st0" d="M66.1,0.2l2.4,0l-3.7,11.4l-2.4,0L66.1,0.2z"/>
	</g>
</g>
</svg>
