<svg xmlns="http://www.w3.org/2000/svg" width="234.277" height="191.54" viewBox="0 0 234.277 191.54">
  <g id="_2" data-name="2" transform="translate(170.958 -27.746) rotate(72)" opacity="0.25">
    <path id="Path_1" data-name="Path 1" d="M14.294,118.355a14.065,14.065,0,0,1-10.633-4.8A13.524,13.524,0,0,1,.573,101.2L13.608,43.579a14.063,14.063,0,1,1,27.44,6.174l-8.918,39.1,39.789-3.43a13.944,13.944,0,0,1,2.4,27.784l-59,5.145H14.294" transform="translate(-0.187 60.394)" fill="none" stroke="#fff" stroke-width="1.5"/>
    <path id="Path_2" data-name="Path 2" d="M93.422,90.939a9.5,9.5,0,0,1-3.087-.343A14.1,14.1,0,0,1,79.7,73.789l8.918-39.1-39.789,3.43A13.9,13.9,0,0,1,33.739,25.425,14.1,14.1,0,0,1,46.43,10.333l59-4.8a13.577,13.577,0,0,1,11.662,4.8,13.524,13.524,0,0,1,3.087,12.348L107.142,80.306a14.621,14.621,0,0,1-13.72,10.633" transform="translate(81.211 -5.487)" fill="none" stroke="#fff" stroke-width="1.5"/>
    <path id="Path_3" data-name="Path 3" d="M57.6,105.248a14.068,14.068,0,0,1-13.034-8.918l-22.3-57.282a14.013,14.013,0,1,1,26.068-10.29l22.3,57.282a14.053,14.053,0,0,1-7.889,18.179,13.763,13.763,0,0,1-5.145,1.029" transform="translate(51.178 29.597)" fill="none" stroke="#fff" stroke-width="1.5"/>
    <path id="Path_4" data-name="Path 4" d="M14.294,118.355a14.065,14.065,0,0,1-10.633-4.8A13.524,13.524,0,0,1,.573,101.2L13.608,43.579a14.063,14.063,0,1,1,27.44,6.174l-8.918,39.1,39.789-3.43a13.944,13.944,0,0,1,2.4,27.784l-59,5.145H14.294" transform="translate(-0.187 60.394)" fill="none" stroke="#fff" stroke-width="1.5"/>
    <path id="Path_5" data-name="Path 5" d="M93.422,90.939a9.5,9.5,0,0,1-3.087-.343A14.1,14.1,0,0,1,79.7,73.789l8.918-39.1-39.789,3.43A13.9,13.9,0,0,1,33.739,25.425,14.1,14.1,0,0,1,46.43,10.333l59-4.8a13.577,13.577,0,0,1,11.662,4.8,13.524,13.524,0,0,1,3.087,12.348L107.142,80.306a14.621,14.621,0,0,1-13.72,10.633" transform="translate(81.211 -5.487)" fill="none" stroke="#fff" stroke-width="1.5"/>
    <path id="Path_6" data-name="Path 6" d="M57.6,105.248a14.068,14.068,0,0,1-13.034-8.918l-22.3-57.282a14.013,14.013,0,1,1,26.068-10.29l22.3,57.282a14.053,14.053,0,0,1-7.889,18.179,13.763,13.763,0,0,1-5.145,1.029" transform="translate(51.178 29.597)" fill="none" stroke="#fff" stroke-width="1.5"/>
    <path id="Path_7" data-name="Path 7" d="M14.294,118.355a14.065,14.065,0,0,1-10.633-4.8A13.524,13.524,0,0,1,.573,101.2L13.608,43.579a14.063,14.063,0,1,1,27.44,6.174l-8.918,39.1,39.789-3.43a13.944,13.944,0,0,1,2.4,27.784l-59,5.145H14.294" transform="translate(-0.187 60.394)" fill="none" stroke="#fff" stroke-width="1.5"/>
    <path id="Path_8" data-name="Path 8" d="M93.422,90.939a9.5,9.5,0,0,1-3.087-.343A14.1,14.1,0,0,1,79.7,73.789l8.918-39.1-39.789,3.43A13.9,13.9,0,0,1,33.739,25.425,14.1,14.1,0,0,1,46.43,10.333l59-4.8a13.577,13.577,0,0,1,11.662,4.8,13.524,13.524,0,0,1,3.087,12.348L107.142,80.306a14.621,14.621,0,0,1-13.72,10.633" transform="translate(81.211 -5.487)" fill="none" stroke="#fff" stroke-width="1.5"/>
    <path id="Path_9" data-name="Path 9" d="M57.6,105.248a14.068,14.068,0,0,1-13.034-8.918l-22.3-57.282a14.013,14.013,0,1,1,26.068-10.29l22.3,57.282a14.053,14.053,0,0,1-7.889,18.179,13.763,13.763,0,0,1-5.145,1.029" transform="translate(51.178 29.597)" fill="none" stroke="#fff" stroke-width="1.5"/>
  </g>
</svg>
