<svg xmlns="http://www.w3.org/2000/svg" width="130.412" height="127.81" viewBox="0 0 130.412 127.81">
  <g id="_9" data-name="9" transform="translate(129.649 0.75) rotate(90)" opacity="0.25">
    <path id="Path_10" data-name="Path 10" d="M28.661,101.743A11.611,11.611,0,0,1,20.295,98.5L14.087,92.3C10.039,88.248,6.8,82.85,6.8,76.643A27.838,27.838,0,0,1,14.087,57.75L18.135,53.7c2.159-3.239,4.048-6.208,4.048-9.446l1.08-8.367c1.08-5.128,5.128-9.446,9.446-10.526l5.128-1.08a24.792,24.792,0,0,0,10.526-6.208L51.6,14.837C61.048,4.311,76.7,3.232,86.148,11.6l6.208,6.208c5.128,4.048,5.128,12.415,1.08,16.733-4.048,5.128-12.415,5.128-16.733,1.08l-6.208-5.128a1.057,1.057,0,0,0-1.08,1.08l-3.239,3.239A37.384,37.384,0,0,1,45.395,47.224c-1.08,8.367-5.128,15.654-10.526,21.861L31.63,74.214a1.057,1.057,0,0,1-1.08,1.08l6.208,5.128c5.128,4.048,5.128,12.415,1.08,16.733-1.889,3.509-5.938,4.588-9.176,4.588" transform="translate(-6.8 -6.041)" fill="none" stroke="#fff" stroke-width="1.5"/>
    <path id="Path_11" data-name="Path 11" d="M46,112.718a25.781,25.781,0,0,1-14.574-5.128l-6.208-6.208c-5.128-4.048-5.128-12.415-1.08-16.733,4.048-5.128,12.415-5.128,16.733-1.08L47.075,88.7a1.057,1.057,0,0,0,1.08-1.08l3.239-3.239A37.384,37.384,0,0,1,72.175,71.964C73.254,63.6,77.3,56.31,82.7,50.1l4.048-4.048a1.057,1.057,0,0,1,1.08-1.08l-8.367-5.128c-5.128-4.048-5.128-12.415-1.08-16.733,4.048-5.128,12.415-5.128,16.733-1.08l6.208,6.208c5.128,4.048,7.287,10.526,7.287,17.813,0,6.208-2.159,12.415-7.287,16.733l-4.048,4.048c-2.159,3.239-4.048,6.208-4.048,9.446l-1.08,8.367c-1.08,5.128-5.128,9.446-9.446,10.526l-5.4.81a24.792,24.792,0,0,0-10.526,6.208l-3.239,3.239C59.49,109.749,52.2,112.718,46,112.718M86.749,46.054Z" transform="translate(17.699 16.181)" fill="none" stroke="#fff" stroke-width="1.5"/>
  </g>
</svg>
